<?xml version="1.0" standalone="no"?>
<!DOCTYPE svg PUBLIC "-//W3C//DTD SVG 20010904//EN"
 "http://www.w3.org/TR/2001/REC-SVG-20010904/DTD/svg10.dtd">
<svg version="1.0" xmlns="http://www.w3.org/2000/svg"
 width="500.000000pt" height="500.000000pt" viewBox="0 0 500.000000 500.000000"
 preserveAspectRatio="xMidYMid meet">
<metadata>
Created by potrace 1.14, written by Peter Selinger 2001-2017
</metadata>
<g transform="translate(0.000000,500.000000) scale(0.100000,-0.100000)"
fill="#000000" stroke="none">
<path d="M4290 4830 c-132 -8 -225 -64 -294 -178 -75 -124 -67 -285 19 -398
26 -34 26 -35 8 -61 -22 -31 -27 -40 -73 -118 -19 -34 -41 -70 -47 -80 -7 -11
-34 -54 -59 -97 -45 -76 -46 -76 -77 -67 -30 9 -94 6 -191 -7 -44 -6 -124 -44
-173 -82 l-33 -24 -107 52 c-60 29 -114 57 -120 62 -7 6 -57 31 -110 57 -54
25 -114 56 -134 69 -35 21 -36 24 -38 83 -3 90 -36 181 -87 239 -49 54 -143
106 -206 115 -24 3 -59 8 -79 11 -42 6 -140 -24 -198 -60 -194 -123 -223 -414
-58 -573 76 -73 141 -103 240 -110 73 -5 89 -2 147 21 36 14 77 37 93 50 l27
23 63 -32 c34 -18 143 -74 242 -125 169 -87 180 -95 177 -119 -7 -53 -3 -207
6 -236 8 -28 6 -32 -42 -62 -28 -18 -54 -33 -58 -33 -5 0 -52 -26 -106 -57
-53 -31 -142 -81 -197 -111 -55 -31 -111 -64 -124 -74 -13 -10 -29 -18 -35
-18 -6 0 -46 26 -88 58 -164 121 -393 183 -593 158 -136 -17 -239 -46 -319
-91 -43 -25 -81 -45 -85 -45 -6 0 -38 31 -118 115 -115 121 -242 254 -291 307
l-53 56 17 33 c67 131 69 297 5 414 -52 94 -65 112 -113 150 -28 22 -60 48
-71 58 -33 28 -146 59 -230 62 -128 5 -249 -42 -345 -133 -77 -71 -142 -230
-142 -341 0 -74 34 -193 72 -252 41 -64 120 -139 174 -167 129 -66 300 -72
422 -15 l33 16 67 -70 c37 -39 117 -123 177 -188 61 -65 133 -141 160 -169
l50 -52 -39 -54 c-86 -121 -147 -304 -151 -455 -3 -92 19 -248 45 -316 l17
-47 -48 -36 c-27 -20 -52 -36 -57 -36 -5 0 -17 -9 -28 -21 -10 -12 -33 -29
-51 -38 -17 -9 -75 -47 -128 -84 l-97 -68 -42 34 c-107 88 -281 113 -427 62
-149 -52 -241 -143 -293 -290 -22 -60 -25 -85 -23 -175 3 -114 14 -148 83
-255 100 -154 304 -234 489 -191 133 32 271 139 320 251 46 104 60 230 36 322
-8 30 -7 33 38 61 53 35 196 133 289 200 l64 45 66 -67 c75 -76 171 -140 282
-187 108 -46 161 -58 285 -65 105 -6 217 7 306 36 28 9 22 17 119 -165 14 -27
59 -109 99 -182 l73 -132 -22 -23 c-80 -84 -132 -229 -125 -345 12 -177 110
-321 274 -400 66 -32 88 -37 166 -41 157 -7 275 39 381 150 95 99 128 183 126
324 -2 75 -6 104 -27 150 -14 31 -25 62 -25 69 0 24 -79 113 -137 157 -87 65
-193 97 -310 92 l-91 -3 -43 87 c-24 48 -59 114 -78 147 -121 211 -133 238
-117 250 170 130 281 315 326 540 30 147 3 350 -67 513 -19 46 -34 84 -32 85
2 1 31 16 64 33 91 47 173 93 245 137 36 22 92 54 125 71 33 18 74 41 91 51
31 18 31 18 55 -3 24 -23 100 -61 160 -80 52 -17 117 -21 188 -11 l64 9 70
-72 c39 -40 130 -134 204 -209 73 -75 133 -143 133 -152 0 -8 -7 -31 -15 -52
-20 -47 -21 -177 -2 -233 21 -61 70 -132 119 -173 130 -107 305 -111 452 -10
203 140 196 478 -14 612 -14 9 -53 26 -87 38 -50 18 -76 21 -140 17 -43 -3
-88 -8 -101 -12 -19 -5 -47 19 -207 182 -101 104 -185 192 -185 195 0 4 15 30
34 58 55 82 78 154 82 253 4 127 -36 251 -104 329 l-31 36 48 75 c27 41 50 79
52 84 2 5 33 57 68 117 l64 107 51 0 c79 0 150 23 222 71 74 50 117 108 141
188 20 69 22 132 8 197 -42 187 -190 296 -385 284z"/>
</g>
</svg>
